# This file uses centimeters as units for non-parametric coordinates.

mtllib Rubble Spiky.mtl
g default
v 0.000000 0.000000 1.632920
v 1.877925 0.000000 0.000000
v 0.000000 1.000000 0.000000
v -2.034282 0.000000 0.000000
v 0.000000 -1.000000 0.000000
v 0.000000 0.000000 -1.814242
vt 0.500000 0.500000
vt 0.750000 0.500000
vt 0.500000 1.000000
vt 0.250000 0.500000
vt 0.500000 1.000000
vt 1.000000 0.500000
vt 1.250000 0.500000
vn 0.413478 0.776480 0.475516
vn 0.413478 0.776480 0.475516
vn 0.413478 0.776480 0.475516
vn -0.386614 0.786481 0.481641
vn -0.386614 0.786481 0.481641
vn -0.386614 0.786481 0.481641
vn -0.386614 -0.786481 0.481641
vn -0.386614 -0.786481 0.481641
vn -0.386614 -0.786481 0.481641
vn 0.413478 -0.776480 0.475516
vn 0.413478 -0.776480 0.475516
vn 0.413478 -0.776480 0.475516
vn 0.422651 0.793707 -0.437487
vn 0.422651 0.793707 -0.437487
vn 0.422651 0.793707 -0.437487
vn -0.395421 0.804398 -0.443380
vn -0.395421 0.804398 -0.443380
vn -0.395421 0.804398 -0.443380
vn -0.395421 -0.804398 -0.443380
vn -0.395421 -0.804398 -0.443380
vn -0.395421 -0.804398 -0.443380
vn 0.422651 -0.793707 -0.437487
vn 0.422651 -0.793707 -0.437487
vn 0.422651 -0.793707 -0.437487
s off
g pPlatonic1
usemtl initialShadingGroup
f 2/2/1 3/3/2 1/1/3
f 3/3/4 4/4/5 1/1/6
f 4/4/7 5/5/8 1/1/9
f 1/1/10 5/5/11 2/2/12
f 6/6/13 3/3/14 2/2/15
f 6/6/16 4/7/17 3/3/18
f 6/6/19 5/5/20 4/7/21
f 6/6/22 2/2/23 5/5/24
g default
v -2.200901 -0.036430 2.098217
v 0.212141 -0.036430 2.706707
v -0.860662 0.963570 1.165378
v -2.022787 -0.036430 -0.504283
v -0.860662 -1.036430 1.165378
v 0.628399 -0.036430 0.128955
vt 0.500000 0.500000
vt 0.750000 0.500000
vt 0.500000 1.000000
vt 0.250000 0.500000
vt 0.500000 1.000000
vt 1.000000 0.500000
vt 1.250000 0.500000
vn -0.154078 0.776480 0.611015
vn -0.154078 0.776480 0.611015
vn -0.154078 0.776480 0.611015
vn -0.616173 0.786481 -0.042170
vn -0.616173 0.786481 -0.042170
vn -0.616173 0.786481 -0.042170
vn -0.616173 -0.786481 -0.042170
vn -0.616173 -0.786481 -0.042170
vn -0.616173 -0.786481 -0.042170
vn -0.154078 -0.776480 0.611015
vn -0.154078 -0.776480 0.611015
vn -0.154078 -0.776480 0.611015
vn 0.600521 0.793707 0.096973
vn 0.600521 0.793707 0.096973
vn 0.600521 0.793707 0.096973
vn 0.138017 0.804398 -0.577836
vn 0.138017 0.804398 -0.577836
vn 0.138017 0.804398 -0.577836
vn 0.138017 -0.804398 -0.577836
vn 0.138017 -0.804398 -0.577836
vn 0.138017 -0.804398 -0.577836
vn 0.600521 -0.793707 0.096973
vn 0.600521 -0.793707 0.096973
vn 0.600521 -0.793707 0.096973
s off
g pPlatonic2
usemtl initialShadingGroup
f 8/9/25 9/10/26 7/8/27
f 9/10/28 10/11/29 7/8/30
f 10/11/31 11/12/32 7/8/33
f 7/8/34 11/12/35 8/9/36
f 12/13/37 9/10/38 8/9/39
f 12/13/40 10/14/41 9/10/42
f 12/13/43 11/12/44 10/14/45
f 12/13/46 8/9/47 11/12/48
g default
v -0.887653 -0.036430 2.098217
v 1.525388 -0.036430 2.706707
v 0.452585 0.963570 1.165378
v -0.709540 -0.036430 -0.504283
v 0.452585 -1.036430 1.165378
v 1.941646 -0.036430 0.128955
vt 0.500000 0.500000
vt 0.750000 0.500000
vt 0.500000 1.000000
vt 0.250000 0.500000
vt 0.500000 1.000000
vt 1.000000 0.500000
vt 1.250000 0.500000
vn -0.154078 0.776480 0.611015
vn -0.154078 0.776480 0.611015
vn -0.154078 0.776480 0.611015
vn -0.616173 0.786481 -0.042170
vn -0.616173 0.786481 -0.042170
vn -0.616173 0.786481 -0.042170
vn -0.616173 -0.786481 -0.042170
vn -0.616173 -0.786481 -0.042170
vn -0.616173 -0.786481 -0.042170
vn -0.154078 -0.776480 0.611015
vn -0.154078 -0.776480 0.611015
vn -0.154078 -0.776480 0.611015
vn 0.600521 0.793707 0.096973
vn 0.600521 0.793707 0.096973
vn 0.600521 0.793707 0.096973
vn 0.138017 0.804398 -0.577836
vn 0.138017 0.804398 -0.577836
vn 0.138017 0.804398 -0.577836
vn 0.138017 -0.804398 -0.577836
vn 0.138017 -0.804398 -0.577836
vn 0.138017 -0.804398 -0.577836
vn 0.600521 -0.793707 0.096973
vn 0.600521 -0.793707 0.096973
vn 0.600521 -0.793707 0.096973
s off
g pPlatonic3
usemtl initialShadingGroup
f 14/16/49 15/17/50 13/15/51
f 15/17/52 16/18/53 13/15/54
f 16/18/55 17/19/56 13/15/57
f 13/15/58 17/19/59 14/16/60
f 18/20/61 15/17/62 14/16/63
f 18/20/64 16/21/65 15/17/66
f 18/20/67 17/19/68 16/21/69
f 18/20/70 14/16/71 17/19/72
g default
v -1.175835 0.000000 1.632920
v 0.702090 0.000000 0.000000
v -1.175835 1.000000 0.000000
v -3.210117 0.000000 0.000000
v -1.175835 -1.000000 0.000000
v -1.175835 0.000000 -1.814242
vt 0.500000 0.500000
vt 0.750000 0.500000
vt 0.500000 1.000000
vt 0.250000 0.500000
vt 0.500000 1.000000
vt 1.000000 0.500000
vt 1.250000 0.500000
vn 0.413478 0.776480 0.475516
vn 0.413478 0.776480 0.475516
vn 0.413478 0.776480 0.475516
vn -0.386614 0.786481 0.481641
vn -0.386614 0.786481 0.481641
vn -0.386614 0.786481 0.481641
vn -0.386614 -0.786481 0.481641
vn -0.386614 -0.786481 0.481641
vn -0.386614 -0.786481 0.481641
vn 0.413478 -0.776480 0.475516
vn 0.413478 -0.776480 0.475516
vn 0.413478 -0.776480 0.475516
vn 0.422651 0.793707 -0.437487
vn 0.422651 0.793707 -0.437487
vn 0.422651 0.793707 -0.437487
vn -0.395421 0.804398 -0.443380
vn -0.395421 0.804398 -0.443380
vn -0.395421 0.804398 -0.443380
vn -0.395421 -0.804398 -0.443380
vn -0.395421 -0.804398 -0.443380
vn -0.395421 -0.804398 -0.443380
vn 0.422651 -0.793707 -0.437487
vn 0.422651 -0.793707 -0.437487
vn 0.422651 -0.793707 -0.437487
s off
g pPlatonic4
usemtl initialShadingGroup
f 20/23/73 21/24/74 19/22/75
f 21/24/76 22/25/77 19/22/78
f 22/25/79 23/26/80 19/22/81
f 19/22/82 23/26/83 20/23/84
f 24/27/85 21/24/86 20/23/87
f 24/27/88 22/28/89 21/24/90
f 24/27/91 23/26/92 22/28/93
f 24/27/94 20/23/95 23/26/96
g default
v -0.187664 -0.116357 2.148225
v 1.504018 -0.168640 0.601510
v -0.373907 1.579472 0.601510
v -1.923429 0.001243 0.832253
v -0.373907 -0.258775 0.601510
v -0.671123 0.042735 -1.153659
vt 0.500000 0.500000
vt 0.750000 0.500000
vt 0.500000 1.000000
vt 0.250000 0.500000
vt 0.500000 1.000000
vt 1.000000 0.500000
vt 1.250000 0.500000
vn 0.552819 0.593871 0.584558
vn 0.552819 0.593871 0.584558
vn 0.552819 0.593871 0.584558
vn -0.474140 0.564322 0.675819
vn -0.474140 0.564322 0.675819
vn -0.474140 0.564322 0.675819
vn -0.148792 -0.982907 0.108420
vn -0.148792 -0.982907 0.108420
vn -0.148792 -0.982907 0.108420
vn 0.047765 -0.995160 0.085881
vn 0.047765 -0.995160 0.085881
vn 0.047765 -0.995160 0.085881
vn 0.543453 0.583809 -0.603180
vn 0.543453 0.583809 -0.603180
vn 0.543453 0.583809 -0.603180
vn -0.678726 0.605655 -0.415347
vn -0.678726 0.605655 -0.415347
vn -0.678726 0.605655 -0.415347
vn -0.183635 -0.973522 -0.136139
vn -0.183635 -0.973522 -0.136139
vn -0.183635 -0.973522 -0.136139
vn 0.047186 -0.983102 -0.176871
vn 0.047186 -0.983102 -0.176871
vn 0.047186 -0.983102 -0.176871
s off
g pPlatonic5
usemtl initialShadingGroup
f 26/30/97 27/31/98 25/29/99
f 27/31/100 28/32/101 25/29/102
f 28/32/103 29/33/104 25/29/105
f 25/29/106 29/33/107 26/30/108
f 30/34/109 27/31/110 26/30/111
f 30/34/112 28/35/113 27/31/114
f 30/34/115 29/33/116 28/35/117
f 30/34/118 26/30/119 29/33/120
